{
  "asset": {
    "version": "2.0",
    "generator": "THREE.GLTFExporter r180"
  },
  "scenes": [
    {
      "name": "Scene",
      "nodes": [
        0,
        3,
        4,
        5
      ]
    }
  ],
  "scene": 0,
  "nodes": [
    {
      "matrix": [
        1,
        0,
        0,
        0,
        0,
        1,
        0,
        0,
        0,
        0,
        1,
        0,
        -0.016576725508356205,
        0,
        0,
        1
      ],
      "name": "Floco-Boy.glb",
      "children": [
        1,
        2
      ]
    },
    {
      "matrix": [
        0.5564337968826294,
        0,
        0,
        0,
        0,
        0.5564337968826294,
        0,
        0,
        0,
        0,
        0.5564337968826294,
        0,
        0.09477206473443789,
        0.7971133203071887,
        0,
        1
      ],
      "name": "Tronco002",
      "extras": {
        "name": "Tronco.002"
      },
      "mesh": 0
    },
    {
      "matrix": [
        1,
        0,
        0,
        0,
        0,
        1,
        0,
        0,
        0,
        0,
        1,
        0,
        0.10361815628693671,
        1.627552196528982,
        0.03103557787835598,
        1
      ],
      "name": "Cabeca002",
      "extras": {
        "name": "Cabeca.002"
      },
      "mesh": 1
    },
    {
      "matrix": [
        0.20928660483184325,
        -0.07493431302245387,
        0.9749789565779423,
        0,
        0.14520894268710624,
        0.988386467144248,
        0.04479458147817656,
        0,
        -0.9670126576222531,
        0.1322007575544301,
        0.21773718033533496,
        0,
        -4.28458943276832,
        3.651516938392598,
        1.1282201286002138,
        1
      ],
      "name": "DirectionalLight",
      "extensions": {
        "KHR_lights_punctual": {
          "light": 0
        }
      }
    },
    {
      "matrix": [
        1,
        0,
        0,
        0,
        0,
        1,
        0,
        0,
        0,
        0,
        1,
        0,
        2.2291946020342266,
        3.480880121970447,
        -2.5356253954577253,
        1
      ],
      "name": "SpotLight",
      "extensions": {
        "KHR_lights_punctual": {
          "light": 1
        }
      }
    },
    {
      "matrix": [
        1,
        0,
        0,
        0,
        0,
        1,
        0,
        0,
        0,
        0,
        1,
        0,
        2.8305967495550695,
        1.4338014777088965,
        2.172719041914908,
        1
      ],
      "name": "PointLight",
      "extensions": {
        "KHR_lights_punctual": {
          "light": 2
        }
      }
    }
  ],
  "bufferViews": [
    {
      "buffer": 0,
      "byteOffset": 0,
      "byteLength": 33480,
      "target": 34962,
      "byteStride": 12
    },
    {
      "buffer": 0,
      "byteOffset": 33480,
      "byteLength": 33480,
      "target": 34962,
      "byteStride": 12
    },
    {
      "buffer": 0,
      "byteOffset": 66960,
      "byteLength": 22320,
      "target": 34962,
      "byteStride": 8
    },
    {
      "buffer": 0,
      "byteOffset": 89280,
      "byteLength": 8220,
      "target": 34963
    },
    {
      "buffer": 0,
      "byteOffset": 97500,
      "byteLength": 14904,
      "target": 34962,
      "byteStride": 12
    },
    {
      "buffer": 0,
      "byteOffset": 112404,
      "byteLength": 14904,
      "target": 34962,
      "byteStride": 12
    },
    {
      "buffer": 0,
      "byteOffset": 127308,
      "byteLength": 9936,
      "target": 34962,
      "byteStride": 8
    },
    {
      "buffer": 0,
      "byteOffset": 137244,
      "byteLength": 3708,
      "target": 34963
    }
  ],
  "buffers": [
    {
      "byteLength": 140952,
      "uri": "data:application/octet-stream;base64,"
    }
  ],
  "accessors": [
    {
      "bufferView": 0,
      "componentType": 5126,
      "count": 2790,
      "max": [
        1.6084665060043335,
        0.884049117565155,
        0.5300282835960388
      ],
      "min": [
        -1.6084665060043335,
        -1.4908274412155151,
        -0.4998953938484192
      ],
      "type": "VEC3"
    },
    {
      "bufferView": 1,
      "componentType": 5126,
      "count": 2790,
      "max": [
        0.9992139935493469,
        1,
        0.9991822242736816
      ],
      "min": [
        -0.9992139935493469,
        -1,
        -0.996295690536499
      ],
      "type": "VEC3"
    },
    {
      "bufferView": 2,
      "componentType": 5126,
      "count": 2790,
      "max": [
        1.0028156042099,
        1.068739652633667
      ],
      "min": [
        -0.014772884547710419,
        -0.00037729740142822266
      ],
      "type": "VEC2"
    },
    {
      "bufferView": 3,
      "componentType": 5123,
      "count": 4110,
      "max": [
        2789
      ],
      "min": [
        0
      ],
      "type": "SCALAR"
    },
    {
      "bufferView": 4,
      "componentType": 5126,
      "count": 1242,
      "max": [
        0.5170115232467651,
        0.4027465581893921,
        0.4854157269001007
      ],
      "min": [
        -0.5170115232467651,
        -0.43136924505233765,
        -0.43839749693870544
      ],
      "type": "VEC3"
    },
    {
      "bufferView": 5,
      "componentType": 5126,
      "count": 1242,
      "max": [
        0.9874212145805359,
        0.9912214279174805,
        0.9614247679710388
      ],
      "min": [
        -0.9874212145805359,
        -0.9862139821052551,
        -0.9840759634971619
      ],
      "type": "VEC3"
    },
    {
      "bufferView": 6,
      "componentType": 5126,
      "count": 1242,
      "max": [
        0.7500000596046448,
        0.625
      ],
      "min": [
        0.2499999850988388,
        0.12499988079071045
      ],
      "type": "VEC2"
    },
    {
      "bufferView": 7,
      "componentType": 5123,
      "count": 1854,
      "max": [
        1241
      ],
      "min": [
        0
      ],
      "type": "SCALAR"
    }
  ],
  "materials": [
    {
      "pbrMetallicRoughness": {
        "metallicFactor": 1,
        "roughnessFactor": 1
      }
    }
  ],
  "meshes": [
    {
      "primitives": [
        {
          "mode": 4,
          "attributes": {
            "POSITION": 0,
            "NORMAL": 1,
            "TEXCOORD_0": 2
          },
          "indices": 3,
          "material": 0
        }
      ]
    },
    {
      "primitives": [
        {
          "mode": 4,
          "attributes": {
            "POSITION": 4,
            "NORMAL": 5,
            "TEXCOORD_0": 6
          },
          "indices": 7,
          "material": 0
        }
      ]
    }
  ],
  "extensions": {
    "KHR_lights_punctual": {
      "lights": [
        {
          "name": "DirectionalLight",
          "color": [
            0.9559733532482866,
            0.9559733532482866,
            0.9559733532482866
          ],
          "intensity": 1,
          "type": "directional"
        },
        {
          "name": "SpotLight",
          "color": [
            1,
            1,
            1
          ],
          "intensity": 5.92,
          "type": "spot",
          "range": 6.26,
          "spot": {
            "innerConeAngle": 0.414,
            "outerConeAngle": 0.414
          }
        },
        {
          "name": "PointLight",
          "color": [
            1,
            1,
            1
          ],
          "intensity": 4.14,
          "type": "point",
          "range": 9.72
        }
      ]
    }
  },
  "extensionsUsed": [
    "KHR_lights_punctual"
  ]
}